<?xml version="1.0" standalone="no"?>
<!DOCTYPE svg PUBLIC "-//W3C//DTD SVG 20010904//EN"
 "http://www.w3.org/TR/2001/REC-SVG-20010904/DTD/svg10.dtd">
<svg version="1.0" xmlns="http://www.w3.org/2000/svg"
 width="700.000000pt" height="700.000000pt" viewBox="0 0 700.000000 700.000000"
 preserveAspectRatio="xMidYMid meet">
<metadata>
Created by potrace 1.14, written by Peter Selinger 2001-2017
</metadata>
<g transform="translate(0.000000,700.000000) scale(0.100000,-0.100000)"
fill="#000000" stroke="none">
<path d="M4379 6796 c-2 -2 -24 -6 -49 -9 -69 -8 -191 -44 -283 -81 -150 -63
-3571 -1780 -3646 -1831 -409 -275 -502 -715 -255 -1207 43 -85 180 -298 225
-348 12 -14 32 -35 43 -48 21 -24 21 -26 22 -971 1 -690 4 -956 13 -982 26
-81 23 -79 1081 -608 943 -471 1006 -501 1055 -501 50 0 145 46 1774 860 946
474 1734 873 1751 887 17 14 40 44 52 67 21 41 21 42 22 972 l0 930 60 39
c228 147 455 361 568 535 125 192 180 376 173 575 -5 162 -25 244 -92 384
-152 318 -410 528 -738 600 -27 7 -61 14 -75 17 -14 4 -101 8 -195 9 -153 3
-270 -7 -358 -29 -23 -5 -28 0 -57 55 -137 264 -343 479 -562 587 -138 68
-242 93 -394 97 -73 2 -133 2 -135 1z m252 -440 c139 -42 282 -159 393 -324
59 -88 131 -228 151 -292 37 -118 158 -178 282 -138 62 20 81 25 127 34 16 2
32 7 36 9 18 11 131 19 255 19 121 -1 152 -5 226 -27 185 -56 313 -166 403
-344 123 -245 63 -477 -189 -729 -144 -145 -266 -232 -469 -339 -98 -52 -127
-63 -122 -49 37 121 45 295 19 419 -46 222 -206 456 -409 601 -263 188 -630
219 -1037 87 -122 -40 -138 -48 -144 -71 -7 -29 20 -56 49 -46 10 3 28 7 40
10 13 2 34 6 48 9 116 24 376 27 482 6 37 -7 70 -13 73 -12 12 1 145 -53 200
-82 79 -42 208 -172 261 -262 128 -222 139 -396 37 -604 -77 -156 -251 -336
-458 -472 -67 -44 -256 -149 -267 -149 -3 0 2 33 13 73 15 57 18 99 15 202 -2
72 -6 143 -10 159 -54 233 -226 475 -431 609 -180 118 -335 159 -575 152 -159
-4 -168 -5 -320 -41 -146 -34 -264 -83 -268 -110 -6 -41 20 -48 110 -30 299
59 588 30 778 -78 207 -117 364 -369 375 -601 3 -57 -26 -177 -59 -244 -108
-222 -314 -418 -618 -585 -73 -40 -71 -41 -50 39 22 83 31 246 18 312 -3 11
-8 43 -12 70 -9 66 -57 192 -106 283 -167 308 -427 495 -777 559 -124 23 -356
21 -490 -3 -51 -9 -95 -16 -96 -14 -2 2 -18 30 -36 63 -78 145 -200 308 -298
397 -68 62 -168 137 -199 149 -12 5 -22 12 -22 16 0 5 309 163 687 352 l687
343 60 -5 c181 -16 395 -158 555 -371 70 -93 162 -245 183 -304 15 -40 54 -54
74 -28 16 22 14 29 -31 151 -113 304 -322 567 -540 678 l-29 15 489 245 c270
134 517 254 550 266 139 50 276 59 386 27z m-3461 -1680 c233 -22 461 -250
610 -608 39 -96 58 -121 114 -147 63 -31 106 -33 178 -11 398 122 754 66 935
-147 171 -202 214 -419 122 -621 -61 -134 -211 -303 -379 -428 -106 -79 -240
-164 -259 -164 -26 0 -97 -86 -109 -130 -8 -32 -10 -273 -9 -851 l2 -807 -757
379 -758 379 0 928 c0 1061 11 947 -100 1071 -145 162 -262 358 -306 514 -79
280 45 461 416 607 50 20 212 50 235 44 6 -1 35 -5 65 -8z m4590 -1704 l0
-727 -1475 -738 c-811 -405 -1478 -737 -1482 -737 -4 0 -8 327 -8 727 l0 728
1470 736 c809 405 1476 737 1483 738 9 1 12 -150 12 -727z"/>
</g>
</svg>
